<svg version="1.1" xmlns="http://www.w3.org/2000/svg" xmlns:xlink="http://www.w3.org/1999/xlink" width="365" height="340" viewBox="0,0,365,340"><g fill="none" fill-rule="nonzero" stroke="none" stroke-width="1" stroke-linecap="butt" stroke-linejoin="miter" stroke-miterlimit="10" stroke-dasharray="" stroke-dashoffset="0" font-family="none" font-weight="none" font-size="none" text-anchor="none" style="mix-blend-mode: normal"><path d="M0,340v-340h365v340z" fill="#ffffff"></path><path d="M16,154.2c-4.41828,0 -8,-3.58172 -8,-8v-130.2c0,-4.41828 3.58172,-8 8,-8h333c4.41828,0 8,3.58172 8,8v130.2c0,4.41828 -3.58172,8 -8,8z" fill="#2d2d3a"></path><path d="M8,154.2v-146.2h4v146.2z" fill="#00d9ff"></path><text x="58" y="46" fill="#ffffff" font-family="Microsoft YaHei, SimHei, SimSun, Arial, Times New Roman, Consolas, Segoe UI Emoji, sans-serif, serif" font-weight="normal" font-size="18" text-anchor="start">这个工具极大地提升了我们的工作</text><text x="58" y="73" fill="#ffffff" font-family="Microsoft YaHei, SimHei, SimSun, Arial, Times New Roman, Consolas, Segoe UI Emoji, sans-serif, serif" font-weight="normal" font-size="18" text-anchor="start">效率</text><text x="58" y="100" fill="#ffffff" font-family="Microsoft YaHei, SimHei, SimSun, Arial, Times New Roman, Consolas, Segoe UI Emoji, sans-serif, serif" font-weight="normal" font-size="18" text-anchor="start">，强烈推荐！</text><text x="28" y="123.4" fill="#aaaaaa" font-family="Microsoft YaHei, SimHei, SimSun, Arial, Times New Roman, Consolas, Segoe UI Emoji, sans-serif, serif" font-weight="normal" font-size="15.3" text-anchor="start">— 李明，产品经理</text><text x="38" y="46" fill="#00d9ff" font-family="Microsoft YaHei, SimHei, SimSun, Arial, Times New Roman, Consolas, Segoe UI Emoji, sans-serif, serif" font-weight="normal" font-size="36" text-anchor="start">"</text><path d="M16,154.2c-4.41828,0 -8,-3.58172 -8,-8v-130.2c0,-4.41828 3.58172,-8 8,-8h333c4.41828,0 8,3.58172 8,8v130.2c0,4.41828 -3.58172,8 -8,8z" fill="#2d2d3a"></path><path d="M8,154.2v-146.2h4v146.2z" fill="#00d9ff"></path><text x="58" y="46" fill="#ffffff" font-family="Microsoft YaHei, SimHei, SimSun, Arial, Times New Roman, Consolas, Segoe UI Emoji, sans-serif, serif" font-weight="normal" font-size="18" text-anchor="start">这个工具极大地提升了我们的工作</text><text x="58" y="73" fill="#ffffff" font-family="Microsoft YaHei, SimHei, SimSun, Arial, Times New Roman, Consolas, Segoe UI Emoji, sans-serif, serif" font-weight="normal" font-size="18" text-anchor="start">效率</text><text x="58" y="100" fill="#ffffff" font-family="Microsoft YaHei, SimHei, SimSun, Arial, Times New Roman, Consolas, Segoe UI Emoji, sans-serif, serif" font-weight="normal" font-size="18" text-anchor="start">，强烈推荐！</text><text x="28" y="123.4" fill="#aaaaaa" font-family="Microsoft YaHei, SimHei, SimSun, Arial, Times New Roman, Consolas, Segoe UI Emoji, sans-serif, serif" font-weight="normal" font-size="15.3" text-anchor="start">— 李明，产品经理</text><text x="38" y="46" fill="#00d9ff" font-family="Microsoft YaHei, SimHei, SimSun, Arial, Times New Roman, Consolas, Segoe UI Emoji, sans-serif, serif" font-weight="normal" font-size="36" text-anchor="start">"</text></g></svg>